<svg xmlns="http://www.w3.org/2000/svg" viewBox="0 0 151.36 55.58"><defs><style>.cls-1{fill:#fff;}</style></defs><title>logo</title><g id="Layer_2" data-name="Layer 2"><g id="Layer_1-2" data-name="Layer 1"><path class="cls-1" d="M26.69,1.54c.15-1,.2-1.42.2-1.42a1.57,1.57,0,0,0,.34,0C30.6-.41,31.53,1.4,30,7.17c-.29,1-.64,2.3-1,3.77-.64,2.55-3.67,14-4.26,16.5-1,4.36.64,4.45,1.66,2.79A41.43,41.43,0,0,0,29.92,23c.78-1.76,1.13-2.1,1.13-1.17a8.71,8.71,0,0,1-.69,2.2A36.2,36.2,0,0,1,26.93,31c-2.94,4.85-8.37,3.48-5.87-6.71l.1-.44H15.92C11.37,34.59,4.12,36.84,1,33.56-.87,31.5.11,28,1.92,25.87c1.32-1.62,3.48-2,4.5-.69a2,2,0,0,1-1.76,3.33C2.31,28.22,0,31.11,1.77,33c2.64,2.79,6.61-1.32,10.57-11.5C18.51,5.71,23.51,1.54,26.69,1.54Zm-.24,1.17c-2,.73-4.75,5.68-9.84,19.43l-.29.78H21.4L24.93,9.33C25.71,6.24,26.15,4.14,26.44,2.72Zm2.44,38.67c-2.5-.24-3.57-1.08-1.91-8,1.37-5.73,3.48-14.1,4.06-16.35a71.72,71.72,0,0,0,2-9.2,1.57,1.57,0,0,0,.34,0c2.4-.34,3.87.78,3.28,4.7a17.17,17.17,0,0,1,1.27-1.86c3.28-4.16,8.57.15,5.53,11.7-2.89,11-9.35,12.83-11.94,10.52l-2.15,8.57A2.48,2.48,0,0,1,28.89,41.39Zm5.82-21.1c-.59,2.45-1.81,7.1-2.94,11.55,1.76,2.64,4.85-.59,7.34-9.74,2.4-8.81.78-12.73-.83-10.67a20.78,20.78,0,0,0-3,6.56,1.43,1.43,0,0,1-.1.44l-.15.69Zm11.6-3.23a72,72,0,0,0,2-9.2,2.05,2.05,0,0,0,.34,0c2.4-.34,3.82.78,3.23,4.7a17.17,17.17,0,0,1,1.27-1.86c3.33-4.16,8.62.15,5.58,11.7-2.89,11.06-9.35,12.87-11.94,10.52-.29.93-.59,2-.83,3l0,0A54.52,54.52,0,0,1,57,37.62C67.21,40.07,76.81,41.54,83,35.81a2.63,2.63,0,0,1,.44.34c3.33,2.69,2.55,5.63-1.86,6.8-6.61,1.71-16.15-.88-25.7-3.67a44.46,44.46,0,0,0-10.43-1.81C39.65,56.71,27.56,58.28,25,52.89,23,48.68,26,42.22,32.26,38.75A23.73,23.73,0,0,1,41.32,36c.2-.59.39-1.13.54-1.76C43.47,28.61,45.92,18.48,46.31,17.06ZM40.88,37.57a16.71,16.71,0,0,0-8.47,2.89c-3.87,2.94-5.53,9.2-3.18,11.94S35.83,53.33,40.88,37.57Zm9.84-20c-.73,2.84-2,7.88-3.72,14.29,1.76,2.64,4.85-.54,7.34-9.74,2.4-8.81.83-12.73-.83-10.67A21.41,21.41,0,0,0,50.71,17.55Zm11.5-.88c1.47-5.78,3.48-5.68,5-4.65.39.29.69.54.69.54-.1.44-2.5,9.1-3.92,14.83-1.08,4.36.59,4.45,1.66,2.84A43.33,43.33,0,0,0,69.17,23c.73-1.81,1.13-2.1,1.13-1.22a9.45,9.45,0,0,1-.69,2.25A39.39,39.39,0,0,1,66.18,31c-2.94,4.8-8.42,3.48-5.87-6.75C60.6,22.94,61.68,18.87,62.22,16.67Zm3.48-7.39C64,8.69,63.24,7.13,64.08,5.8a3.9,3.9,0,0,1,4.5-1.27c1.71.64,2.45,2.2,1.66,3.52A4,4,0,0,1,65.69,9.28Zm6.7,0a86.91,86.91,0,0,0,2-9.2,1.57,1.57,0,0,0,.34,0C78-.41,79,1.64,77.49,7.17c-.29,1-4.11,15.81-5.24,20.27s.59,4.45,1.66,2.79A41.43,41.43,0,0,0,77.39,23c.73-1.76,1.13-2.1,1.13-1.17a8.72,8.72,0,0,1-.69,2.2A36.2,36.2,0,0,1,74.4,31c-2.94,4.8-8.42,3.48-5.87-6.71C69.65,19.71,71.37,13.44,72.4,9.33Zm6.75,7.34c1.47-5.78,3.48-5.68,5-4.65.39.29.69.54.69.54-.1.44-2.5,9.1-3.92,14.83-1.08,4.36.59,4.45,1.66,2.84A43.33,43.33,0,0,0,86.1,23c.73-1.81,1.13-2.1,1.13-1.22a9.45,9.45,0,0,1-.69,2.25A39.39,39.39,0,0,1,83.11,31c-2.94,4.8-8.42,3.48-5.87-6.75C77.53,22.94,78.61,18.87,79.15,16.67Zm3.48-7.39C81,8.69,80.18,7.13,81,5.8a3.9,3.9,0,0,1,4.5-1.27c1.71.64,2.45,2.2,1.66,3.52A4,4,0,0,1,82.63,9.28ZM92.76,19.36c-.1-.29-.2-.49-.15-.49,5.83-1.37,7.69-6.07,6.36-7.93-1.57-2.25-5.78.1-8.42,9.89-2.45,9,.69,12.33,3.33,11.26,2.25-.93,4.46-3.33,7-9.06.78-1.76,1.13-2.1,1.13-1.17a7.37,7.37,0,0,1-.69,2.2c-2.3,5-4.26,7.93-7.83,9.35-5.19,2.06-10.33-1.22-7.24-12.83,3.13-11.94,11.41-13.22,13.56-10,1.62,2.3,1.27,5.63-.68,8.57C97,22.45,94,22.74,92.76,19.36Zm13.51-9.15a6.77,6.77,0,0,1,4.26-3.87c4.55-1.08,6.41,6.27,4.11,15.08l-.39,1.37a15.14,15.14,0,0,0,2.69-2.1c1.37-1.32,1.81-1.52,1.47-.69a6.94,6.94,0,0,1-1.47,1.81,10.5,10.5,0,0,1-3.08,2.1c-2.4,6.41-6.51,9.64-9.3,9.74s-6.8-2.64-4.06-13.07C101.71,15.84,103.72,12.22,106.26,10.21Zm-.88,8.37-.59,2.25c-2.15,9.06-1.47,11.65.29,11.55,1.37,0,3-3.48,4.46-8.42A7.79,7.79,0,0,1,106,20.29,5.94,5.94,0,0,1,105.38,18.58Zm4.41,4.55.29-1c1.37-5,2.3-10.18,1.86-12.82h-.1c-2.4-.2-4.21,2.15-5.73,6.66a7.92,7.92,0,0,0,.83,3.87A7.7,7.7,0,0,0,109.79,23.13ZM111.65,8.4a1.2,1.2,0,0,0-1.47-.88,3.7,3.7,0,0,0-2.1,1.62A7.45,7.45,0,0,1,111.65,8.4Zm7.29,5.38c1.62-6.31,3.38-6,5.24-4.9a2.45,2.45,0,0,1,.59.39c-.29,1.17-2.5,9.1-4.75,18.11-1,4.36.69,4.5,1.71,2.84,2.64-4.26,5-11.94,6.41-16.45,1.62-6.31,3.38-6,5.29-4.9a5.19,5.19,0,0,1,.59.39c-.34,1.17-3.33,12.19-5.58,21.24-1.08,4.36.64,4.45,1.66,2.79a41.41,41.41,0,0,0,3.48-7.2c.78-1.76,1.13-2.1,1.13-1.17a7.36,7.36,0,0,1-.69,2.2,39.36,39.36,0,0,1-3.43,6.9c-2.94,4.8-8.37,3.48-5.87-6.76l.78-3.08A45.3,45.3,0,0,1,122.27,31c-2.94,4.8-8.47,3.43-6-6.75Zm26.48,8.27a20.11,20.11,0,0,1,.64,4.6c0,7.73-6.75,11.21-10.38,9.1-3-1.71-2.06-6.27.44-9A18.22,18.22,0,0,1,141.31,23a26.9,26.9,0,0,0-3-7.54c-1,2.59-2,5.24-2.79,7.2-.24.59-1,2.5-1.27,2a3,3,0,0,1,.34-1.91c.88-2.45,2.06-5.53,3-8.37a1.68,1.68,0,0,1-.25-.39c-1.91-2.69-1.57-4.8-.64-6.12,1.47-2.15,4.65-1.17,4.65-1.17,0,.24-.44,1.42-1.08,3.18l-.78,2.3a0,0,0,0,0,0,0,26.08,26.08,0,0,1,5.68,9.2,19.64,19.64,0,0,1,4.16-.88c1.91-.2,2.4,0,1.62.39a7.57,7.57,0,0,1-2.3.44A18.68,18.68,0,0,0,145.42,22.05Zm-3.92,1.86a18.78,18.78,0,0,0-4.6,3.62c-2.15,2.4-2.45,5.83-.59,7s5-1.27,5.43-6.56A16.25,16.25,0,0,0,141.5,23.91Z"/></g></g></svg>