<svg xmlns="http://www.w3.org/2000/svg" viewBox="0 0 793.76 330.81"><defs><style>.cls-1{fill:#fff;}</style></defs><title>logo-white</title><g id="Layer_2" data-name="Layer 2"><g id="Layer_1-2" data-name="Layer 1"><path class="cls-1" d="M732.25,190.14a90.74,90.74,0,0,0-40,9.3c-4.09-8.17-8.24-15.36-8.94-20.71-.81-6.24-1.75-10-.77-17.41s5.28-18,5.22-18.75-1-4.58-9.86-4.64-16.51,1.71-17.4,4.06a87.53,87.53,0,0,0-3.68,13.15c-1.56,8.06-17.76,36.84-27,51.89-3-5.88-5.57-11.06-6.1-15.15-.82-6.25-1.76-10-.78-17.41s5.29-18,5.22-18.75-1-4.58-9.86-4.64-16.5,1.71-17.4,4.06-1.85,7.84-3.67,13.15-23.37,53.3-29,65.74c-2.87,6.34-5.38,11.43-7.14,14.91v0l-.3.62c-1.51,3-2.41,4.6-2.41,4.6l0,.06c-1.2,2.18-2.49,4.2-3.13,4.2-.44,0-1.33-5.79.2-13.73,3.2-16.65,10.9-42.62,10.83-43.51,0-.46,1.43-5-5-7.35-6.28-2.3-8.52,1.54-9.09,1.55s-1,1.35-1,1.35,7-29.2-13.34-29.2c-12.71,0-30.33,13.91-39,26.52-5.48,3-17.2,9.38-29.63,16.22L455,218.1c-.32-.35-.63-.7-.95-1-24.67-26.31-70.25-44.92-68.32-80.29.71-12.86,5.17-46.72,87.6-87.79,67.52-33.65,121.57-24.39,130.91-3.87,13.34,29.31-28.89,83.8-99,91.66-26.71,3-40.78-7.36-44.28-11.22-3.68-4.06-4.23-4.24-5.61-3.48-2.24,1.24-.82,4.83,0,7,2.1,5.45,10.69,15.11,25.34,19.92,12.88,4.23,44.25,6.55,82.18-8.12,42.48-16.44,75.65-62.15,65.91-100.36-9.91-38.86-74.35-51.64-135.33-30-36.3,12.89-75.59,33.13-103.84,59.56-33.59,31.41-39,58.76-36.74,70.19,7.84,40.6,63.8,67,86.21,86.63l-3.09,1.7c-11.23,5.56-53.89,27.89-64.56,51.47-12.1,26.76,1.93,45.95,11.22,48.54,28.78,8,58.31-6.4,74.18-30.07S470.75,244,463.47,230l-.29-.52c2.9-1.72,5.86-3.46,8.79-5.18,5.72-3.36,11.33-6.49,16.21-9.14-2.73,7.46-4.73,16.42-5.76,29.34-1.22,15.19,5,34.82,13.14,42.54,3.59,3.4,7.91,3.48,10.64,3.48,9.48,0,13.8-7.88,18.56-17.21,5.84-11.43,11-24.75,11-24.75s-6.5,36,11.22,36c6.46,0,13-8.37,15.84-12.64l0,.07.49-.84c.67-1,1-1.67,1-1.67a1.9,1.9,0,0,0,0-.19c2.59-4.5,8.35-14.78,17-31.72,11.15-21.89,21.85-49.31,21.85-49.31A145.37,145.37,0,0,0,607.52,206c1.92,6.53,6,13.74,9.21,20.65-2.59,3.59-4.18,5.65-4.18,5.65a.7.7,0,0,1,0,.11c-2.06,2.74-4.38,5.7-6.81,8.59-8.8,10.49-19.28,22.46-20.69,25.91-1.65,4.07-1.26,7.07,1.94,9.48,2.33,1.76,6.49,2,10.83,1.74a49.45,49.45,0,0,0,16.22-3.69A54.73,54.73,0,0,0,628,267.1c8.64-6.35,13.84-15.43,13.34-27.46-.27-6.63-2.39-13.2-5.06-19.4l2.36-3.42a368.81,368.81,0,0,0,24.17-41.77,145.37,145.37,0,0,0,4.25,17.79c1.65,5.61,4.91,11.74,7.83,17.74-12.8,10.4-20.74,22.48-23.49,30.41-5.1,14.66-1.11,21.31,6.38,22.82,3.39.68,8.18-.87,11.78-2.39a54.58,54.58,0,0,0,14.9-7.67c8.64-6.34,16.94-15.23,16.44-27.26a51,51,0,0,0-3.73-16.13c10.85-4.52,24.9-7,42.79-5,38.38,4.49,45.91,28.45,44.48,38.48s-9.5,15.55-12.19,17.21-3.51,2.24-3.28,3.48c.32,1.8,1.57,1.73,3.86,1.35,3.16-.54,20.16-8.16,20.89-26.68C794.66,215.75,772.14,189.92,732.25,190.14ZM436.39,289.88c-12.72,13.87-30.48,19.11-38.1,14.7-8.22-4.77-5-25.19,10.64-39.91,9.51-9,21.78-17.23,29.93-22.32l7.88-4.74.86-.48v0l2-1.18C455.24,256.88,449.73,275.32,436.39,289.88Zm92.62-63c-4.43,10.8-13.7,38.42-19.34,36.94-4.84-1.27-7.79-22.27-1-42.93,3.43-10.4,10.77-22.83,15.08-27.65,6.94-7.76,14.58-10.3,16.43-7.16C542.59,190.12,531.79,220.15,529,226.91Zm76.52,36.52c-1.87,1-3.6,1.6-4.4,1.12-.58-.35.78-1.64.78-1.64s9.57-10.3,13.34-15c2.19-2.73,4.74-6,7.51-9.58,0,.36,0,.72,0,1.07C622.76,251.75,610.85,260.08,605.53,263.43Zm59-13.44c-1.4-1-1.16-4.22,3.44-14.25A53.76,53.76,0,0,1,681,218.83a24.55,24.55,0,0,1,1.32,7.43C682.26,241.78,671.18,247.58,664.48,250Z"/><path class="cls-1" d="M5.83,158.36V216.8H36.07V222H0V158.36Z"/><path class="cls-1" d="M95.89,158.36v5.19H65.66v22.39H90.59v5.19H65.66V216.8H95.89V222H59.82V158.36Z"/><path class="cls-1" d="M124,222h-6l26.31-63.64H149L175.34,222H169l-7.63-18.46H131.53Zm22.38-54.95-12.73,31.3h25.57Z"/><path class="cls-1" d="M243.86,222H237l-18.25-26.31H205.35V222h-5.83V158.36h19.73c13.68,0,19.62,8.69,19.62,18.66,0,8.6-4.34,16-14,18ZM233,177c0-6.57-3.29-13.47-13.79-13.47h-13.9V190.5h13.9C229.75,190.5,233,183.71,233,177Z"/><path class="cls-1" d="M272.5,158.36,311,210.23V158.36h5.52V222h-4L274,170.13V222h-5.51V158.36Z"/></g></g></svg>