<svg xmlns="http://www.w3.org/2000/svg" width="753.255" height="527.286" viewBox="0 0 753.255 527.286"><path d="M822.068,167.375a94.345,94.345,0,0,0-66.6-66.593C696.726,85.039,461.178,85.039,461.178,85.039s-235.549,0-294.292,15.743a94.345,94.345,0,0,0-66.6,66.593C84.55,226.118,84.55,348.682,84.55,348.682s0,122.564,15.737,181.307a94.334,94.334,0,0,0,66.6,66.593c58.743,15.743,294.292,15.743,294.292,15.743s235.549,0,294.292-15.743a94.334,94.334,0,0,0,66.6-66.593c15.737-58.743,15.737-181.307,15.737-181.307S837.805,226.118,822.068,167.375Zm-436.214,294.3V235.691l195.692,113Z" transform="translate(-84.55 -85.039)" fill="#d16e8d" opacity="0.05"/></svg>